{
	"asset":{
		"generator":"Khronos glTF Blender I/O v3.5.30",
		"version":"2.0"
	},
	"extensionsUsed":[
		"KHR_materials_specular"
	],
	"scene":0,
	"scenes":[
		{
			"name":"Scene",
			"nodes":[
				4
			]
		}
	],
	"nodes":[
		{
			"mesh":0,
			"name":"Natural_Fiber_Bar_Chair_M_Natural_Fiber_Bar_Chair_0"
		},
		{
			"children":[
				0
			],
			"name":"Natural_Fiber_Bar_Chair"
		},
		{
			"children":[
				1
			],
			"name":"RootNode"
		},
		{
			"children":[
				2
			],
			"name":"Natural_Fiber_Bar_Chair.fbx",
			"rotation":[
				0.70710688829422,
				0,
				0,
				0.7071066498756409
			],
			"scale":[
				0.009999999776482582,
				0.010000001639127731,
				0.010000001639127731
			]
		},
		{
			"children":[
				3
			],
			"name":"Sketchfab_model",
			"rotation":[
				-0.70710688829422,
				0,
				0,
				0.7071066498756409
			],
			"scale":[
				76.92308044433594,
				76.92308807373047,
				76.92308807373047
			]
		}
	],
	"materials":[
		{
			"doubleSided":true,
			"extensions":{
				"KHR_materials_specular":{
					"specularColorTexture":{
						"index":0
					},
					"specularColorFactor":[
						1.1499999761581419,
						1.090909123420715,
						1
					]
				}
			},
			"name":"M_Natural_Fiber_Bar_Chair",
			"normalTexture":{
				"index":1,
				"scale":0.6000000238418579
			},
			"occlusionTexture":{
				"index":2
			},
			"pbrMetallicRoughness":{
				"baseColorTexture":{
					"index":3
				},
				"metallicRoughnessTexture":{
					"index":2
				},
				"roughnessFactor":0.550000011920929
			}
		}
	],
	"meshes":[
		{
			"name":"Natural_Fiber_Bar_Chair_M_Natural_Fiber_Bar_Chair_0",
			"primitives":[
				{
					"attributes":{
						"POSITION":0,
						"TEXCOORD_0":1,
						"NORMAL":2
					},
					"indices":3,
					"material":0
				}
			]
		}
	],
	"textures":[
		{
			"sampler":0,
			"source":0
		},
		{
			"sampler":0,
			"source":1
		},
		{
			"sampler":0,
			"source":2
		},
		{
			"sampler":0,
			"source":3
		}
	],
	"images":[
		{
			"bufferView":4,
			"mimeType":"image/png",
			"name":"Image"
		},
		{
			"bufferView":5,
			"mimeType":"image/png",
			"name":"Image_2"
		},
		{
			"bufferView":6,
			"mimeType":"image/png",
			"name":"Image_1"
		},
		{
			"bufferView":7,
			"mimeType":"image/jpeg",
			"name":"Image_0"
		}
	],
	"accessors":[
		{
			"bufferView":0,
			"componentType":5126,
			"count":2045,
			"max":[
				0.4906369149684906,
				1.3641799688339233,
				0.4906565546989441
			],
			"min":[
				-0.49067139625549316,
				-0.00034531683195382357,
				-0.4906896650791168
			],
			"type":"VEC3"
		},
		{
			"bufferView":1,
			"componentType":5126,
			"count":2045,
			"type":"VEC2"
		},
		{
			"bufferView":2,
			"componentType":5126,
			"count":2045,
			"type":"VEC3"
		},
		{
			"bufferView":3,
			"componentType":5123,
			"count":9402,
			"type":"SCALAR"
		}
	],
	"bufferViews":[
		{
			"buffer":0,
			"byteLength":24540,
			"byteOffset":0,
			"target":34962
		},
		{
			"buffer":0,
			"byteLength":16360,
			"byteOffset":24540,
			"target":34962
		},
		{
			"buffer":0,
			"byteLength":24540,
			"byteOffset":40900,
			"target":34962
		},
		{
			"buffer":0,
			"byteLength":18804,
			"byteOffset":65440,
			"target":34963
		},
		{
			"buffer":0,
			"byteLength":20719,
			"byteOffset":84244
		},
		{
			"buffer":0,
			"byteLength":1213027,
			"byteOffset":104964
		},
		{
			"buffer":0,
			"byteLength":554712,
			"byteOffset":1317992
		},
		{
			"buffer":0,
			"byteLength":550797,
			"byteOffset":1872704
		}
	],
	"samplers":[
		{
			"magFilter":9729,
			"minFilter":9987
		}
	],
	"buffers":[
		{
			"byteLength":2423504,
			"uri":"data:application/octet-stream;base64,"
		}
	]
}
